# xmcd
# Copyright (C) 1995-1998 Ti Kan
#
# Track frame offsets:
#       150
#       19241
#       37820
#       55073
#       74493
#       91783
#       109792
#       127779
#       145991
#       162001
#       179441
#       200154
#       212777
#
# Disc length: 3069 seconds
#
# Revision: 0
# Processed by: cddbd v1.5.2PL0 Copyright (c) Steve Scherf et al.
# Submitted via: CD-Transfer v1.0
#
DISCID=b30bfb0d
DTITLE=Aloan - Better In Springtime
DYEAR=07
DGENRE=
TTITLE0=One Dance For Destiny
TTITLE1=Rise
TTITLE2=The Good Day
TTITLE3=In Time
TTITLE4=I'm Your Tears
TTITLE5=I'll Never Be A Woman
TTITLE6=Tonight I'll Kill You
TTITLE7=Hopefully
TTITLE8=Get On Top
TTITLE9=Dreaming
TTITLE10=Sick Little Doll
TTITLE11=We've Got What You Want
TTITLE12=Better In Springtime
EXTD=
EXTT0=
EXTT1=
EXTT2=
EXTT3=
EXTT4=
EXTT5=
EXTT6=
EXTT7=
EXTT8=
EXTT9=
EXTT10=
EXTT11=
EXTT12=
PLAYORDER=
